<?xml version="1.0" standalone="no"?>
<!DOCTYPE svg PUBLIC "-//W3C//DTD SVG 1.1//EN" "http://www.w3.org/Graphics/SVG/1.1/DTD/svg11.dtd" >
<!--
2013-9-30: Created.
-->
<svg>
<metadata>
Created by iconfont
</metadata>
<defs>

<font id="iconfont" horiz-adv-x="1024" >
  <font-face
    font-family="iconfont"
    font-weight="500"
    font-stretch="normal"
    units-per-em="1024"
    ascent="896"
    descent="-128"
  />
    <missing-glyph />
    
    <glyph glyph-name="xiasanjiaoxing" unicode="&#58946;" d="M325.456896-50.27968M882.05824-50.27968M236.027904-65.161472M960.132096-65.161472M63.683584 23.262976M958.46912 23.262976M64.77824-46.791936M163.396608 522.831616c-40.577024 0-66.526208-54.183936-35.44064-85.25824L477.217792 88.295168c20.031488-20.031488 49.82272-20.031488 69.853184 0l349.274112 349.278208c30.30528 30.294016 6.677504 85.25824-34.927616 85.25824L163.396608 522.831616zM959.522816-46.791936"  horiz-adv-x="1024" />

    
    <glyph glyph-name="shangsanjiaoxing" unicode="&#58947;" d="M325.456896-50.27968M882.05824-50.27968M236.027904-65.161472M960.132096-65.161472M64.134144-33.290496M131.974144 163.247872c-30.418944-30.430208-6.474752-84.301824 34.917376-84.301824L858.258432 78.946048c42.899456 0 65.325056 53.85216 34.916352 84.301824L547.487744 509.430528c-19.930112 19.974144-49.374208 19.95264-69.327872 0L131.974144 163.247872zM960.51712-33.290496"  horiz-adv-x="1024" />

    
    <glyph glyph-name="htmal5icon14" unicode="&#58931;" d="M510.015809 766.604978c-144.147004 0-261.006526-116.859521-261.006526-261.006526 0-144.147004 261.006526-498.286674 261.006526-498.286674s261.006526 354.138646 261.006526 498.286674C771.023358 649.745457 654.163837 766.604978 510.015809 766.604978zM510.015809 377.553171c-70.723761 0-128.045281 57.32152-128.045281 128.045281s57.32152 128.044258 128.045281 128.044258 128.045281-57.32152 128.045281-128.044258S580.739571 377.553171 510.015809 377.553171z"  horiz-adv-x="1024" />

    
    <glyph glyph-name="doubleright-copy" unicode="&#58885;" d="M740.449 402.893l-223.15 219.199c-9.437 9.226-24.698 9.226-34.138 0-9.441-9.271-9.44-24.33 0-33.6l207.657-203.901-207.657-203.98c-9.441-9.271-9.44-24.255 0-33.523 9.441-9.271 24.7-9.271 34.138 0l223.151 219.118c5.194 5.060 7.276 11.778 6.845 18.385 0.431 6.561-1.651 13.243-6.846 18.302v0zM572.436 384.591c0.474 6.564-1.648 13.244-6.763 18.302l-223.152 219.199c-9.437 9.226-24.698 9.226-34.215 0-9.437-9.272-9.359-24.33 0-33.6l207.738-203.9-207.738-203.981c-9.359-9.271-9.437-24.255 0-33.523 9.519-9.272 24.779-9.271 34.215 0l223.152 219.118c5.116 5.059 7.237 11.778 6.763 18.385v0zM572.436 384.591z"  horiz-adv-x="1024" />

    
    <glyph glyph-name="gouwuche" unicode="&#58970;" d="M944.951334 475.737384c24.763466 14.837614 25.479764 26.093734 25.479764 45.84311L970.431098 659.109823c0 37.963825-34.177676 68.764665-76.439292 68.764665L130.008194 727.874488c-42.159288 0-76.439292-30.800839-76.439292-68.764665l0-137.529329c0-20.568002 1.637254-34.280004 25.479764-45.84311 34.791646-14.530629 76.439292-44.001199 76.439292-91.68622 0-61.806336-43.182572-81.965024-74.904367-91.583891-22.307585-12.58639-27.01469-33.25672-27.01469-45.945438l0-137.529329c0-37.963825 34.177676-68.764665 76.439292-68.764665l764.08594 0c42.159288 0 76.439292 30.800839 76.439292 68.764665L970.533427 246.521835c0 25.070451-6.344359 32.949735-25.479764 45.84311-55.666633 25.786749-76.439292 48.810633-76.439292 91.68622C868.61437 426.926751 888.05676 448.313381 944.951334 475.737384L944.951334 475.737384M664.776257 395.409613c0-6.344359-5.730389-11.460777-12.791046-11.460777l-114.607775 0 0-45.84311 114.607775 0c7.060658 0 12.791046-5.116419 12.791046-11.460777l0-22.921555c0-6.344359-5.730389-11.460777-12.791046-11.460777l-114.607775 0 0-80.225442c0-6.344359-5.730389-11.460777-12.688718-11.460777l-25.479764 0c-7.060658 0-12.688718 5.116419-12.688718 11.460777l0 80.225442-114.607775 0c-7.060658 0-12.688718 5.116419-12.688718 11.460777l0 22.921555c0 6.344359 5.730389 11.460777 12.688718 11.460777l114.607775 0 0 45.84311-114.607775 0c-7.060658 0-12.688718 5.116419-12.688718 11.460777L359.223743 418.433497c0 6.344359 5.730389 11.460777 12.688718 11.460777l96.393325 0-104.681923 101.202758c-4.502448 4.40012-4.502448 11.563106 0 15.963226l16.167882 15.963226c4.502448 4.40012 11.767763 4.40012 16.167882 0l115.835715-111.947237 115.733387 111.947237c4.502448 4.40012 11.870091 4.40012 16.372539 0l16.372539-16.065554c4.502448-4.40012 4.502448-11.665434 0-16.065554l-104.374938-100.895773 96.188668 0c7.060658 0 12.791046-5.116419 12.791046-11.460777L664.878585 395.409613 664.776257 395.409613 664.776257 395.409613M664.776257 395.409613 664.776257 395.409613z"  horiz-adv-x="1024" />

    
    <glyph glyph-name="shanchu" unicode="&#58948;" d="M782.246469 655.472901c36.608779-36.608779 64.905242-79.291904 84.184331-126.794801 18.651802-45.9004 28.084639-94.451162 28.010961-144.263661 0.069585-49.808406-9.359158-98.363262-28.015054-144.260591-19.279089-47.50392-47.569412-90.189092-84.175121-126.793778-36.606733-36.606733-79.294974-64.900126-126.797871-84.179214-45.896306-18.654872-94.451162-28.084639-144.259568-28.015054-49.808406-0.069585-98.365308 9.358135-144.259568 28.015054-47.50392 19.277042-90.192162 47.569412-126.800941 84.179214-36.604686 36.603663-64.895009 79.289857-84.173075 126.793778-18.656919 45.895283-28.084639 94.452185-28.015054 144.260591-0.072655 49.812499 9.359158 98.363262 28.010961 144.263661 19.280112 47.501874 47.575552 90.186022 84.183308 126.793778 36.604686 36.604686 79.286788 64.899102 126.789685 84.178191 45.9004 18.651802 94.451162 28.084639 144.263661 28.011984 49.813522 0.072655 98.363262-9.360182 144.264685-28.011984C702.959681 720.373027 745.642806 692.077587 782.246469 655.472901M827.505255 700.731688C652.829957 875.406986 369.558335 875.406986 194.883037 700.730665 20.202623 526.05025 20.201599 242.779651 194.876897 68.104353c174.681438-174.681438 457.952037-174.679391 632.632451 0C1002.18567 242.779651 1002.18567 526.05025 827.505255 700.731688L827.505255 700.731688 827.505255 700.731688zM557.129338 382.513136 716.737476 542.12025l-45.222971 45.223994L511.906367 427.736107 352.762811 586.87864l-45.344744-45.344744 159.142533-159.143557L309.697993 225.527732l45.201481-45.201481 156.86363 156.86363 157.358911-157.356864 45.333488 45.333488L557.129338 382.513136zM714.465736 225.175715"  horiz-adv-x="1024" />

    
    <glyph glyph-name="sc" unicode="&#58911;" d="M844.8 593.066667 213.333333 593.066667c-17.066667 0-34.133333-12.8-34.133333-34.133333S196.266667 529.066667 213.333333 529.066667l68.266667 0 46.933333-439.466667c0-17.066667 17.066667-29.866667 29.866667-29.866667l345.6 0c17.066667 0 29.866667 12.8 29.866667 29.866667l46.933333 439.466667 59.733333 0c17.066667 0 34.133333 12.8 34.133333 34.133333S861.866667 593.066667 844.8 593.066667zM674.133333 128 388.266667 128l-42.666667 401.066667 371.2 0L674.133333 128zM392.533333 640l273.066667 0c17.066667 0 34.133333 12.8 34.133333 34.133333S682.666667 704 665.6 704L392.533333 704c-17.066667 0-34.133333-12.8-34.133333-34.133333S375.466667 640 392.533333 640zM576 226.133333C576 226.133333 576 226.133333 576 226.133333c21.333333 0 34.133333 12.8 34.133333 29.866667l21.333333 192c0 17.066667-8.533333 34.133333-29.866667 34.133333-17.066667 4.266667-34.133333-8.533333-34.133333-29.866667l-21.333333-192C546.133333 243.2 558.933333 226.133333 576 226.133333z"  horiz-adv-x="1024" />

    
    <glyph glyph-name="jiantou1" unicode="&#58943;" d="M273.239938 384.137889l431.296983 431.296983 34.418521-34.418521-431.296983-431.296983-34.418521 34.418521ZM704.538638-46.267079l-431.29843 431.29843 34.418521 34.418521 431.29843-431.29843-34.418521-34.418521Z"  horiz-adv-x="1024" />

    
    <glyph glyph-name="jiantou" unicode="&#58949;" d="M300.295344 832.184579 756.236584 385.474584 300.295344-61.234387 264.856203-26.540214 685.507706 385.474584 264.856203 797.490406Z"  horiz-adv-x="1024" />

    
    <glyph glyph-name="choose" unicode="&#58939;" d="M512 885.819392C235.034624 885.819392 10.508288 660.733952 10.508288 383.0784S235.034624-119.66464 512-119.66464s501.491712 225.08544 501.491712 502.74304S788.965376 885.819392 512 885.819392z m263.69024-359.264256L442.761216 159.342592a40.96 40.96 0 0 0-59.342848-1.417216l-158.398464 158.79168c-15.976448 16.01536-15.94368 41.951232 0.07168 57.92768 16.01536 15.970304 41.949184 15.94368 57.925632-0.07168l127.981568-128.301056 304.003072 335.306752c15.19616 16.758784 41.099264 18.026496 57.856 2.832384 16.758784-15.194112 18.028544-41.097216 2.832384-57.856z"  horiz-adv-x="1024" />

    
    <glyph glyph-name="importedlayerscopy2" unicode="&#58880;" d="M686.292 719.175h97.308c30.836 0 63.577-31.936 63.577-65.922v-94.962h53.628v142.181c0 39.939-32.74 72.331-68.979 72.331h-145.534v-53.628zM176.825 558.292v94.962c0 33.986 26.036 65.922 56.873 65.922h90.604v53.628h-138.831c-36.239 0-62.275-32.392-62.275-72.331v-142.181h53.628zM324.3 48.825h-90.605c-30.836 0-56.873 31.936-56.873 65.922v81.555h-53.628v-128.775c0-39.939 26.036-72.331 62.275-72.331h138.83v53.628zM847.175 196.3v-81.555c0-33.986-32.74-65.922-63.577-65.922h-97.308v-53.628h145.534c36.239 0 68.979 32.392 68.979 72.331v128.775h-53.628zM873.99 390.703c0-18.516-15.002-33.518-33.518-33.518h-643.538c-18.516 0-33.518 15.002-33.518 33.518s15.002 33.518 33.518 33.518h643.538c18.516 0 33.518-15.002 33.518-33.517z"  horiz-adv-x="1024" />

    
    <glyph glyph-name="gouwuche1" unicode="&#58881;" d="M355.728 69.616c-26.554 0-48.061-21.507-48.061-48.061s21.507-48.061 48.061-48.061 48.061 21.507 48.061 48.061-21.507 48.061-48.061 48.061z m412.756 0c-26.554 0-48.061-21.507-48.061-48.061s21.507-48.061 48.061-48.061 48.061 21.507 48.061 48.061-21.507 48.061-48.061 48.061z m73.253 46.619H351.918c-19.974 0-39.496 7.668-54.971 21.592-15.492 13.939-25.371 32.746-27.815 52.955l-0.004 0.034-51.159 360.168-29.084 168.179-0.058 0.417c-2.246 16.221-17.087 29.925-32.408 29.925H118c-13.807 0-25 11.193-25 25s11.193 25 25 25h38.418c40.122 0 75.994-31.859 81.871-72.613l29.074-168.122 51.404-361.965c0.994-8.221 5.121-15.959 11.622-21.809 6.28-5.65 13.925-8.762 21.528-8.762h489.819c13.808 0 25-11.193 25-25s-11.191-24.999-24.999-24.999zM389.532 238.731c-12.972 0-23.937 10.019-24.906 23.163-1.015 13.77 9.325 25.755 23.094 26.771l408.873 30.139 0.59 0.016c16.205 0.428 30.604 12.955 32.781 28.521l0.132 0.841 47.394 271.179c0.016 0.086 0.024 0.151 0.032 0.216 1.395 11.716-1.94 23.753-8.703 31.425-4.64 5.25-10.736 8.037-17.613 8.037H329.09c-13.807 0-25 11.193-25 25s11.193 25 25 25h522.116c21.316 0 40.886-8.861 55.102-24.952 16.142-18.311 23.936-44.625 20.865-70.411a53.075 53.075 0 0 0-0.433-2.946l-47.323-270.777c-5.732-39.299-40.099-69.724-80.271-71.097L391.396 238.8a25.4 25.4 0 0 0-1.864-0.069z"  horiz-adv-x="1024" />

    
    <glyph glyph-name="gouwuche2" unicode="&#58933;" d="M962.079334 350.72l61.44 352.768c1.536 7.68-0.512 14.848-5.632 20.992-5.12 5.632-12.288 9.216-19.456 9.216H279.583334c-14.336 0-25.6-11.264-25.6-25.6s11.264-25.6 25.6-25.6h688.64l-53.248-304.128-631.296-84.48L184.351334 758.272c-1.536 7.68-6.656 14.336-13.824 17.408l-133.632 66.56c-12.8 6.144-28.16 1.024-34.304-11.776-6.144-12.8-1.024-28.16 11.776-34.304l122.368-60.416L266.271334 130.56c2.56-11.776 12.8-20.48 25.088-20.48h663.552c14.336 0 25.6 11.264 25.6 25.6s-11.264 25.6-25.6 25.6H311.839334l-17.408 81.92 645.632 86.016c11.264 2.048 19.968 10.752 22.016 21.504zM395.295334 0m-51.2 0a51.2 51.2 0 1 1 102.4 0 51.2 51.2 0 1 1-102.4 0ZM866.335334 0m-51.2 0a51.2 51.2 0 1 1 102.4 0 51.2 51.2 0 1 1-102.4 0Z"  horiz-adv-x="1024" />

    
    <glyph glyph-name="pingjia" unicode="&#58995;" d="M809.248961 801.026952H183.709045c-57.579393 0-104.256482-46.677089-104.256482-104.256482v-625.539916c0-57.579393 46.677089-104.257505 104.256482-104.257506h625.539916c57.57837 0 104.257505 46.677089 104.257506 104.257506V696.77047c0 57.579393-46.679136 104.256482-104.257506 104.256482z m-7.664563-353.431542l-118.948089-98.769514a37.105083 37.105083 0 0 1-12.251022-37.70474l38.178531-149.819191c8.28571-32.515554-27.414373-58.45432-55.778375-40.525995L522.094916 203.379293a37.107129 37.107129 0 0 1-39.647999 0l-130.690528-82.603323c-28.362978-17.928325-64.061015 8.008394-55.776327 40.525995l38.174437 149.819191a37.104059 37.104059 0 0 1-12.252045 37.70474l-118.946042 98.769514c-25.813922 21.433148-12.17939 63.402005 21.305235 65.569368l154.285922 9.988492a37.104059 37.104059 0 0 1 32.075533 23.304775l57.17621 143.644561c12.406564 31.176047 56.534598 31.176047 68.945255 0l57.175187-143.644561a37.115316 37.115316 0 0 1 32.075533-23.304775l154.285922-9.988492c33.484625-2.166339 47.120181-44.135196 21.305235-65.569368h-0.002046z"  horiz-adv-x="1024" />

    
    <glyph glyph-name="huiyuanwode-jiatingchengyuan" unicode="&#58915;" d="M213.7 113c25.5 68.7 70.6 127.3 130.3 169.8 27.2 19.4 57.3 34.5 88.9 45.2-65.8 34.3-116.1 98.2-130.7 171.7-10.6 53.2-4.3 107 17.9 156.5 20.2 45.2 55.6 83.8 97.7 109.5 5.4 3.3 10.9 6.4 16.6 9.2-21.3 9.4-44.1 15.2-67.9 17-41.5 3.2-84.5-7.3-120-29-34.4-20.9-63.2-52.4-79.6-89.2-18-40.3-23.2-84.2-14.6-127.5 12-59.9 52.9-112 106.5-139.9-25.8-8.7-50.3-21-72.5-36.8-48.6-34.6-85.4-82.4-106.2-138.4-11.7-31.4-17.3-65.3-17.4-98.8 0-12.6 10.7-23.4 23.4-23.4h126.1c0.5 1.4 0.9 2.8 1.5 4.1zM642.7 671.2c0.5-0.2 1-0.4 1.5-0.7-0.5 0.2-1 0.5-1.4 0.6-0.1 0-0.1 0-0.1 0.1zM641.2 671.8c0.4-0.2 0.7-0.3 1-0.5 0.2-0.1 0.3-0.1 0.5-0.2-0.5 0.3-1 0.5-1.5 0.7zM896.6 190c-42.3 59.3-100.9 104.3-169.2 129.6-6.6 2.4-13.3 4.7-20.1 6.7 14.7 6.5 28.7 14.4 41.8 23.8 41.9 29.9 73.4 71 91.3 119.2 17.9 48.2 19.5 102.9 5.5 152.3-13.5 47.6-41.6 91.6-79.9 123.1C725.4 778 676.5 797.9 624 802c-50.6 3.9-102.7-8.6-146.1-34.9-42.1-25.5-77.2-63.8-97.5-108.8-22.1-48.9-28.4-102.8-17.8-155.6 9.8-48.5 35.3-94.1 71-128.3 20.8-20 45.3-36.5 71.8-48.3-36.9-10.9-72-27.6-103.3-50-59.3-42.3-104.3-100.9-129.6-169.2-14.3-38.6-21.2-80.1-21.3-121.2 0-12.6 10.7-23.4 23.4-23.4H856.8c26.7 0 53.5-0.5 80.2 0h1.1c12.6 0 23.4 10.7 23.4 23.4-0.3 72.6-22.6 145.1-64.9 204.3zM762.5 582.6c3.1-0.1 6-1.1 8.7-2.8 2.7-1.5 4.9-3.5 6.6-6 2.1-2.3 3.5-4.9 4.2-8 0.2-0.9 0.5-1.8 0.7-2.7 1.1-4.1 1.1-8.3 0-12.4-0.8-1.9-1.6-3.7-2.4-5.6-2.1-3.5-4.9-6.3-8.4-8.4-1.9-0.8-3.7-1.6-5.6-2.4-3.1-1-6.2-1.1-9.3-0.4-3.1 0.1-6 1.1-8.7 2.8-2.7 1.5-4.9 3.5-6.6 6-2.1 2.3-3.5 4.9-4.2 8-0.2 0.9-0.5 1.8-0.7 2.7-1.1 4.1-1.1 8.3 0 12.4 0.8 1.9 1.6 3.7 2.4 5.6 2.1 3.5 4.9 6.3 8.4 8.4 1.9 0.8 3.7 1.6 5.6 2.4 3.1 0.9 6.2 1.1 9.3 0.4z m-66.9 50c-5.2 5.7-10.7 11.1-16.5 16.2-1.2 1.1-2.5 2.1-3.7 3.1-0.3 0.2-0.5 0.4-0.8 0.7-2.6 1.9-5.3 3.8-8 5.6-4.9 3.2-10 6.2-15.2 8.9-2.2 1.1-4.4 2.2-6.7 3.3-0.1 0.1-0.2 0.1-0.4 0.2 1.6-0.8 2.7-1.4-2 0.9-3.3 1.3-6.7 2.5-10.1 3.5-3 0.9-6.1 1.8-9.2 2.3-12.9 2.1-18.9 17.5-16.3 28.8 1.3 5.6 5.9 11.1 10.7 14 5.8 3.4 11.6 3.4 18 2.4 2.7-0.4 5.4-1.2 8.1-2 44.3-12.9 81.1-44.1 106.3-82 7.3-10.9 1.7-25.5-8.4-32-11.1-7.1-25.2-1.8-32 8.4-1.3 2-2.6 3.9-4 5.8-0.3 0.4-1.1 1.6-1.8 2.6-2.4 3.1-5.3 6.2-8 9.3z"  horiz-adv-x="1024" />

    
    <glyph glyph-name="xingzhuang60kaobei2" unicode="&#58892;" d="M1077.529145 507.793752C1072.06379 524.466544 1056.511742 535.673981 1039.008769 535.673981L686.956883 535.673981 578.161726 868.175116C572.876243 884.792563 557.37954 896 539.765877 896 522.262904 896 506.710856 884.792563 501.370028 868.299643L392.450343 535.673981 40.467639 535.673981C22.909321 535.673981 7.398781 524.466544 2.002608 507.793752-3.462747 491.286996 2.528389 473.036861 16.682967 462.880986L301.504067 257.46665199999995 192.764255-75.21435499999995C187.243555-91.77645700000005 193.234691-109.86055599999997 207.444614-120.12712099999999 221.474665-130.338342 240.845544-130.338342 254.944776-120.12712099999999L539.765877 85.41173900000001 824.642322-120.12712099999999C831.629675-125.19122300000004 839.972989-127.82012799999995 848.371649-127.82012799999995 856.701127-127.82012799999995 865.099787-125.19122300000004 872.142485-120.12712099999999 886.297062-109.86055599999997 892.288199-91.77645700000005 886.767498-75.21435499999995L778.138377 257.46665199999995 1062.793441 462.880986C1076.934183 473.036861 1082.869974 491.286996 1077.529145 507.793752Z"  horiz-adv-x="1080" />

    
    <glyph glyph-name="dingbu" unicode="&#58902;" d="M1002.666667 768H21.333333c-12.8 0-21.333333-8.533333-21.333333-21.333333v-8.533334c0-12.8 8.533333-21.333333 21.333333-21.333333h981.333334c12.8 0 21.333333 8.533333 21.333333 21.333333V746.666667c0 12.8-8.533333 21.333333-21.333333 21.333333zM512 512L6.4 34.133333c-4.266667-4.266667-6.4-8.533333-6.4-14.933333s2.133333-10.666667 6.4-14.933333c8.533333-8.533333 21.333333-8.533333 29.866667 0L512 454.4l475.733333-450.133333c8.533333-8.533333 21.333333-8.533333 29.866667 0 8.533333 8.533333 8.533333 21.333333 0 27.733333L512 512z"  horiz-adv-x="1024" />

    
    <glyph glyph-name="tupian" unicode="&#59116;" d="M880.64 682.7008c-79.2064 0-143.36-66.8672-143.36-149.4016 0-82.432 64.1536-149.2992 143.36-149.2992S1024 450.8672 1024 533.2992c0 82.5344-64.2048 149.4016-143.36 149.4016z m266.24-397.4656a159.4368 159.4368 0 0 1-177.8688-37.4784l-109.9776-114.5856c-2.2528 2.56-3.8912 5.632-6.3488 8.0384L504.7296 503.808a159.5904 159.5904 0 0 1-232.0384 0L81.92 304.9984V682.7008c0 70.656 55.04 128 122.88 128h819.2c67.84 0 122.88-57.344 122.88-128v-397.4656zM1105.92 896H122.88C54.9888 896 0 838.656 0 768v-768C0-70.656 55.04-128 122.88-128h983.04c67.84 0 122.88 57.344 122.88 128v768C1228.8 838.656 1173.76 896 1105.92 896z"  horiz-adv-x="1228" />

    
    <glyph glyph-name="unselected" unicode="&#58887;" d="M512 832a448 448 0 1 0-448-448 448 448 0 0 0 448 448m0 64a512 512 0 1 1 512-512 512 512 0 0 1-512 512z"  horiz-adv-x="1024" />

    
    <glyph glyph-name="shoucang-copy" unicode="&#58882;" d="M707.584 802.816c-77.312 0-148.992-38.912-196.608-102.912-47.104 64-119.296 102.912-196.608 102.912-139.264 0-252.416-123.904-252.416-275.968 0-90.624 40.448-154.624 73.216-205.824 94.72-148.992 333.312-333.824 343.552-341.504 9.728-7.68 20.992-11.264 32.256-11.264s22.528 3.584 32.256 11.264c10.24 7.68 248.32 193.024 343.552 341.504 32.768 51.2 73.216 115.2 73.216 205.824 0 152.064-113.152 275.968-252.416 275.968z"  horiz-adv-x="1024" />

    
    <glyph glyph-name="youxiang" unicode="&#58888;" d="M834.446 682.553H194.105c-50.176 0-91.022-40.846-91.022-91.022v-423.026c0-50.176 40.846-91.022 91.022-91.022h640.341c50.176 0 91.022 40.846 91.022 91.022V591.531c0 50.176-40.846 91.022-91.022 91.022z m36.409-514.048c0-20.025-16.384-36.409-36.409-36.409H194.105c-20.025 0-36.409 16.384-36.409 36.409V591.531c0 20.025 16.384 36.409 36.409 36.409h640.341c20.025 0 36.409-16.384 36.409-36.409v-423.026zM786.773 537.941L514.275 366.023 241.777 537.941c-12.743 8.078-29.582 4.21-37.661-8.533-8.078-12.743-4.21-29.582 8.533-37.661l286.72-180.907c4.551-2.845 9.557-4.21 14.563-4.21h0.91c5.006 0 10.013 1.365 14.563 4.21l286.72 180.907c12.743 8.078 16.611 24.917 8.533 37.661-8.306 12.857-25.145 16.611-37.888 8.533z"  horiz-adv-x="1024" />

    
    <glyph glyph-name="yaoping" unicode="&#58912;" d="M757.237657 594.221253H266.327919C223.515152 594.221253 188.767677 559.473778 188.767677 516.66101v-490.908444c0-42.812768 34.747475-77.560242 77.560242-77.560243h490.909738c42.812768 0 77.560242 34.747475 77.560242 77.560243V516.66101c0 42.711919-34.747475 77.560242-77.560242 77.560243zM619.898828 245.303596h-82.212202v-82.212202c0-14.272646-11.580768-25.853414-25.853414-25.853414s-25.853414 11.580768-25.853414 25.853414v82.212202h-82.212202c-14.272646 0-25.853414 11.580768-25.853414 25.853414s11.580768 25.853414 25.853414 25.853414h82.212202v82.212202c0 14.272646 11.580768 25.853414 25.853414 25.853414s25.853414-11.580768 25.853414-25.853414v-82.212202h82.212202c14.272646 0 25.853414-11.580768 25.853414-25.853414s-11.580768-25.853414-25.853414-25.853414zM339.752081 642.620768h349.540848c37.020444 0 67.216808 30.090343 67.216808 67.216808v41.368565c0 37.020444-30.196364 67.218101-67.216808 67.218101H339.752081c-37.019152 0-67.216808-30.197657-67.216808-67.218101v-41.368565c0-37.020444 30.197657-67.216808 67.216808-67.216808z"  horiz-adv-x="1024" />

    
    <glyph glyph-name="icon-yyclsyh" unicode="&#58929;" d="M360.69376 288.09216000000004a78.09024 78.09024 0 1 1 146.7392-0.9216l-146.7392 0.9216zM443.06432 290.77504l-6.00064-40.50944-6.00064 40.5504 6.00064 0.86016 6.00064-0.90112z m26.19392 5.67296a282.95168 282.95168 0 0 1 241.52064 279.90016V762.6752a52.20352 52.20352 0 0 1-52.20352 52.224h-103.38304v40.96h103.38304a93.184 93.184 0 0 0 93.16352-93.184v-186.32704a323.91168 323.91168 0 0 0-276.48-320.43008l-38.1952-5.65248-37.72416 5.59104A323.9936 323.9936 0 0 0 122.88 576.36864V762.6752a93.184 93.184 0 0 0 93.16352 93.184h105.34912v-40.96h-105.34912A52.20352 52.20352 0 0 1 163.84 762.6752v-186.32704c0-140.288 102.74816-259.39968 241.52064-279.9616l31.70304-4.7104 32.19456 4.77184z m-26.19392-5.67296l-6.00064-40.50944-6.00064 40.5504 6.00064 0.86016 6.00064-0.90112z m26.19392 5.67296a282.95168 282.95168 0 0 1 241.52064 279.90016V762.6752a52.20352 52.20352 0 0 1-52.20352 52.224h-103.38304v40.96h103.38304a93.184 93.184 0 0 0 93.16352-93.184v-186.32704a323.91168 323.91168 0 0 0-276.48-320.43008l-38.1952-5.65248-37.72416 5.59104A323.9936 323.9936 0 0 0 122.88 576.36864V762.6752a93.184 93.184 0 0 0 93.16352 93.184h105.34912v-40.96h-105.34912A52.20352 52.20352 0 0 1 163.84 762.6752v-186.32704c0-140.288 102.74816-259.39968 241.52064-279.9616l31.70304-4.7104 32.19456 4.77184zM320.86016 762.6752c-16.5888 0-31.55968 6.92224-42.14784 18.04288a57.9584 57.9584 0 0 0-16.0768 40.18176c0 15.5648 6.10304 29.71648 16.0768 40.16128a57.9584 57.9584 0 0 0 42.14784 18.06336c17.08032 0 32.44032-7.35232 43.08992-19.0464a58.22464 58.22464 0 0 0-43.08992-97.3824z m232.89856 0c-16.56832 0-31.5392 6.92224-42.14784 18.04288a58.0608 58.0608 0 0 0-16.0768 40.18176 58.20416 58.20416 0 0 0 102.03136 38.35904 58.1632 58.1632 0 0 0-43.80672-96.58368zM1083.63776 22.568959999999947a18.69824 18.69824 0 0 1 14.76608 30.1056 18.6368 18.6368 0 0 1-33.44384-11.42784 18.6368 18.6368 0 0 1 18.67776-18.67776z m0-40.96a59.5968 59.5968 0 0 0-42.68032 101.29408 59.43296 59.43296 0 0 0 42.68032 17.98144c17.16224 0 32.64512-7.2704 43.52-18.88256 9.99424-10.6496 16.11776-24.9856 16.11776-40.7552 0-14.31552-5.05856-27.4432-13.45536-37.72416a59.51488 59.51488 0 0 0-46.1824-21.9136zM778.24 97.27999999999997v-20.48a184.32 184.32 0 0 0-184.32-184.32 184.32 184.32 0 0 0-184.32 184.32v143.36c0 6.92224 0.38912 13.74208 1.1264 20.48h41.28768A143.91296 143.91296 0 0 1 450.56 220.15999999999997v-143.36a143.36 143.36 0 1 1 286.72 0v143.36c0 6.9632-0.49152 13.78304-1.45408 20.48H737.28v20.48a184.32 184.32 0 0 0 368.64 0v-143.36c0-6.92224-0.38912-13.76256-1.1264-20.48h-41.28768c0.96256 6.67648 1.45408 13.5168 1.45408 20.48v143.36a143.36 143.36 0 1 1-286.72 0v-143.36c0-6.9632 0.49152-13.80352 1.45408-20.48H778.24zM237.81376 267.61216a78.09024 78.09024 0 1 1 146.7392-0.9216l-146.7392 0.9216zM320.18432 270.29504l-6.00064-40.50944-6.00064 40.5504 6.00064 0.86016 6.00064-0.90112z m26.19392 5.67296a282.95168 282.95168 0 0 1 241.52064 279.90016V742.1952a52.20352 52.20352 0 0 1-52.20352 52.224h-103.38304v40.96h103.38304a93.184 93.184 0 0 0 93.16352-93.184v-186.32704a323.91168 323.91168 0 0 0-276.48-320.43008l-38.1952-5.65248-37.72416 5.59104A323.9936 323.9936 0 0 0 0 555.88864V742.1952a93.184 93.184 0 0 0 93.16352 93.184h105.34912v-40.96H93.16352A52.20352 52.20352 0 0 1 40.96 742.1952v-186.32704c0-140.288 102.74816-259.39968 241.52064-279.9616l31.70304-4.7104 32.19456 4.77184z m-26.19392-5.67296l-6.00064-40.50944-6.00064 40.5504 6.00064 0.86016 6.00064-0.90112z m26.19392 5.67296a282.95168 282.95168 0 0 1 241.52064 279.90016V742.1952a52.20352 52.20352 0 0 1-52.20352 52.224h-103.38304v40.96h103.38304a93.184 93.184 0 0 0 93.16352-93.184v-186.32704a323.91168 323.91168 0 0 0-276.48-320.43008l-38.1952-5.65248-37.72416 5.59104A323.9936 323.9936 0 0 0 0 555.88864V742.1952a93.184 93.184 0 0 0 93.16352 93.184h105.34912v-40.96H93.16352A52.20352 52.20352 0 0 1 40.96 742.1952v-186.32704c0-140.288 102.74816-259.39968 241.52064-279.9616l31.70304-4.7104 32.19456 4.77184zM197.98016 742.1952a58.04032 58.04032 0 0 0-42.86464 18.8416 57.9584 57.9584 0 0 0-15.36 39.38304c0 14.41792 5.2224 27.60704 13.90592 37.76512a58.08128 58.08128 0 0 0 44.31872 20.48 58.1632 58.1632 0 0 0 58.22464-58.24512A58.22464 58.22464 0 0 0 197.98016 742.1952z m232.89856 0a58.04032 58.04032 0 0 0-41.1648 17.03936 58.0608 58.0608 0 0 0-17.05984 41.18528A57.87648 57.87648 0 0 0 383.71328 834.56a58.1632 58.1632 0 0 0 83.39456 11.4688 58.08128 58.08128 0 0 0 21.99552-45.60896c0-18.08384-8.23296-34.26304-21.17632-44.93312a57.97888 57.97888 0 0 0-37.04832-13.29152zM960.75776 2.088960000000043a18.71872 18.71872 0 0 1 18.67776 18.67776 18.67776 18.67776 0 1 1-18.67776-18.67776z m0-40.96A59.53536 59.53536 0 0 0 901.12 20.766719999999964c0 16.9984 7.10656 32.31744 18.49344 43.17184a59.43296 59.43296 0 0 0 41.14432 16.46592 59.55584 59.55584 0 0 0 59.63776-59.63776 59.392 59.392 0 0 0-17.92-42.5984 59.45344 59.45344 0 0 0-41.71776-17.03936zM655.36 76.79999999999995v-20.48a184.32 184.32 0 0 0-184.32-184.32 184.32 184.32 0 0 0-184.32 184.32v143.36c0 6.92224 0.38912 13.74208 1.1264 20.48h41.28768A143.91296 143.91296 0 0 1 327.68 199.67999999999995v-143.36a143.36 143.36 0 1 1 286.72 0v143.36c0 6.9632-0.49152 13.78304-1.45408 20.48H614.4v20.48a184.32 184.32 0 0 0 368.64 0v-143.36c0-6.92224-0.38912-13.76256-1.1264-20.48h-41.28768c0.96256 6.67648 1.45408 13.5168 1.45408 20.48v143.36a143.36 143.36 0 1 1-286.72 0v-143.36c0-6.9632 0.49152-13.80352 1.45408-20.48H655.36z"  horiz-adv-x="1146" />

    
    <glyph glyph-name="wodeziliao" unicode="&#58968;" d="M264.9 636.4H139c-18 0-22.9 10.5-11.5 22.4l163.6 153.8c13.1 12 22.9 7.5 22.9-8.9v-122.5c0-25.4-21.2-44.8-49.1-44.8zM822.8 832h-409c-26.2 0-49.1-19.4-49.1-44.8V637.8c0-25.4-21.3-44.8-49.1-44.8H152c-27.8 0-49.1-19.4-49.1-44.8v-522.6c0-49.3 44.2-89.6 98.2-89.6h621.8c53.9 0 98.1 40.3 98.1 89.6v716.8c0 49.3-44.2 89.6-98.2 89.6zM716.5 160h-409c-13.1 0-24.6 10.4-24.6 22.4 0 11.9 11.5 22.4 24.6 22.4h409c13.1 0 24.6-10.5 24.6-22.4 0-12-11.5-22.4-24.6-22.4z m0 149.3h-409c-13.1 0-24.6 10.5-24.6 22.4s11.5 22.4 24.6 22.4h409c13.1 0 24.6-10.4 24.6-22.4 0-11.9-11.5-22.4-24.6-22.4z m0 149.4H454.7c-13.1 0-24.6 10.5-24.6 22.4 0 11.9 11.5 22.4 24.6 22.4h261.8c13.1 0 24.6-10.5 24.6-22.4 0-11.9-11.5-22.4-24.6-22.4z"  horiz-adv-x="1024" />

    
    <glyph glyph-name="wode" unicode="&#58890;" d="M927.744-70.65599999999995H135.168c-16.384 0-32.768 8.192-43.008 20.48-10.24 14.336-14.336 30.72-10.24 47.104 40.96 208.896 210.944 364.544 415.744 380.928 8.192 2.048 14.336 2.048 24.576 2.048v-20.48c-8.192 0-14.336 0-22.528-2.048-196.608-14.336-360.448-163.84-399.36-364.544-2.048-10.24 0-22.528 8.192-30.72 6.144-8.192 16.384-12.288 26.624-12.288h792.576c10.24 0 20.48 4.096 26.624 12.288 6.144 8.192 10.24 18.432 8.192 30.72-24.576 131.072-104.448 243.712-217.088 307.2-12.288 8.192-26.624 14.336-38.912 20.48l8.192 18.432c14.336-6.144 28.672-14.336 40.96-20.48 118.784-67.584 200.704-184.32 227.328-321.536 4.096-16.384 0-32.768-12.288-47.104-10.24-12.288-26.624-20.48-43.008-20.48z m-399.36 430.08h-4.096v20.48h6.144l-2.048-20.48zM536.576 359.424c-129.024 0-235.52 106.496-235.52 235.52s106.496 235.52 235.52 235.52 235.52-106.496 235.52-235.52-106.496-235.52-235.52-235.52z m0 450.56c-118.784 0-215.04-96.256-215.04-215.04s96.256-215.04 215.04-215.04 215.04 96.256 215.04 215.04-96.256 215.04-215.04 215.04z"  horiz-adv-x="1024" />

    
    <glyph glyph-name="winfo-icon-xiajiantou" unicode="&#58916;" d="M490.6 247.1l383.2 383.2c12.5 12.5 32.8 12.5 45.3 0s12.5-32.8 0-45.3L535.9 201.9c-12.5-12.5-32.8-12.5-45.3 0s-12.5 32.7 0 45.2zM152.1 630.4l383.2-383.2c12.5-12.5 12.5-32.8 0-45.3s-32.8-12.5-45.3 0L106.9 585.2c-12.5 12.5-12.5 32.8 0 45.3 12.5 12.4 32.7 12.4 45.2-0.1z"  horiz-adv-x="1024" />

    
    <glyph glyph-name="winfo-icon-shangjiantou" unicode="&#58918;" d="M535.4 521.2L152.1 137.9c-12.5-12.5-32.8-12.5-45.3 0s-12.5 32.8 0 45.3L490 566.4c12.5 12.5 32.8 12.5 45.3 0 12.6-12.5 12.6-32.7 0.1-45.2zM873.9 137.9L490.6 521.1c-12.5 12.5-12.5 32.8 0 45.3s32.8 12.5 45.3 0l383.2-383.2c12.5-12.5 12.5-32.8 0-45.3s-32.7-12.5-45.2 0z"  horiz-adv-x="1024" />

    
    <glyph glyph-name="bi" unicode="&#58898;" d="M874.037889 746.037019c-199.943975 199.942975-524.119933 199.942975-724.074908 0s-199.942975-524.119933 0-724.074908 524.119933-199.943975 724.074908 0 199.943975 524.130933 0 724.074908zM512.000935 176.370091s-21.423997 75.81399-77.04399 130.595984-130.595983 77.00999-130.595984 77.00999 62.132992 8.797999 130.492984 77.14599S511.999935 591.616039 511.999935 591.616039s14.725998-65.360992 77.68699-129.940984 129.952984-77.69899 129.952984-77.69899-76.96399-23.685997-130.458984-77.18099c-60.799992-62.385992-77.18099-130.423983-77.18099-130.423984z"  horiz-adv-x="1024" />

    
    <glyph glyph-name="fahuotixing" unicode="&#58883;" d="M662.016 79.87199999999996c0-58.88 47.616-106.496 106.496-106.496s106.496 47.616 106.496 106.496-47.616 106.496-106.496 106.496-106.496-47.616-106.496-106.496zM151.552 80.89599999999996c0-58.88 47.616-105.984 105.984-105.984S363.52 22.52800000000002 363.52 80.89599999999996c0 58.88-47.616 105.984-105.984 105.984s-105.984-47.104-105.984-105.984zM857.088 626.1759999999999h-174.08V729.088c0 34.816-20.48 60.928-53.76 67.584H92.16c-37.888 0-71.68-20.48-92.16-54.272v-621.056h92.672c17.92 75.264 84.992 129.536 164.864 129.536s146.944-54.784 164.864-129.536h180.224c17.92 75.264 84.992 129.536 164.864 129.536s146.944-54.784 164.864-129.536H1024v202.24l-166.912 302.592zM689.664 332.79999999999995V544.256h121.856l122.368-211.456h-244.224z"  horiz-adv-x="1024" />

    
    <glyph glyph-name="shouye" unicode="&#58891;" d="M853.87946667-118.44266667H673.65546667c-18.56853333 0-32.768 14.19946667-32.768 32.768V153.53173332999995H383.11253333V-85.67466666999997c0-18.56853333-14.19946667-32.768-32.768-32.768H170.12053333c-18.56853333 0-32.768 14.19946667-32.768 32.768V340.30933332999996H31.40266667c-18.56853333 0-32.768 14.19946667-32.768 32.768s14.19946667 32.768 32.768 32.768h138.71786666c18.56853333 0 32.768-14.19946667 32.768-32.768v-425.984h114.688V186.29973332999998c0 18.56853333 14.19946667 32.768 32.768 32.768h323.31093334c18.56853333 0 32.768-14.19946667 32.768-32.768V-52.90666667000005h147.456c18.56853333 0 32.768-14.19946667 32.768-32.768s-15.29173333-32.768-32.768-32.768zM31.40266667 340.30933332999996c-8.73813333 0-16.384 3.2768-22.9376 9.8304-13.1072 13.1072-13.1072 33.86026667 0 45.8752l480.59733333 480.59733334c13.1072 13.1072 33.86026667 13.1072 45.8752 0 13.1072-13.1072 13.1072-33.86026667 0-45.8752l-480.59733333-480.59733334c-5.46133333-6.5536-14.19946667-9.8304-22.9376-9.8304zM853.87946667-8.12373333000005c-18.56853333 0-32.768 14.19946667-32.768 32.768V373.07733333c0 18.56853333 14.19946667 32.768 32.768 32.768h58.9824L489.0624 830.73706667c-13.1072 13.1072-13.1072 33.86026667 0 45.8752 13.1072 13.1072 33.86026667 13.1072 45.8752 0l480.59733333-480.59733334c9.8304-9.8304 12.01493333-22.9376 7.64586667-36.0448-5.46133333-10.92266667-17.47626667-19.6608-30.58346667-19.6608h-105.94986666v-315.66506666c0-18.56853333-15.29173333-32.768-32.768-32.768z"  horiz-adv-x="1024" />

    
    <glyph glyph-name="xinaixin" unicode="&#58889;" d="M1066.669021 794.974756A351.53737 351.53737 0 0 1 584.675626 805.571676a351.53737 351.53737 0 0 1-481.992394-10.59692 344.227425 344.227425 0 0 1 0-490.031335L506.476211-95.194585a109.62718 109.62718 0 0 1 156.40083 0l403.79198 399.772009a344.227425 344.227425 0 0 1 0 490.397332z m-52.255609-438.50672L610.621432-43.669971a36.542727 36.542727 0 0 0-51.889612 0l-404.157976 400.137007a271.874966 271.874966 0 0 0 0 386.983105 277.355925 277.355925 0 0 0 380.405154 6.211954l49.697628-42.753681 49.331631 42.753681a277.355925 277.355925 0 0 0 380.405155-8.03894 271.874966 271.874966 0 0 0 0-385.155119zM338.016471 713.120368a155.304838 155.304838 0 0 1-155.304838-155.304838 18.270863 18.270863 0 0 1 36.541727 0A118.762112 118.762112 0 0 0 338.017471 676.577641a18.270863 18.270863 0 0 1 0 36.542727z"  horiz-adv-x="1169" />

    
    <glyph glyph-name="shangdian_huaban" unicode="&#58884;" d="M878.167183 233.411765c-12.681115 0-22.19195-9.510836-22.191951-22.191951v-209.23839c0-12.681115-9.510836-22.19195-22.19195-22.19195H209.23839c-12.681115 0-22.19195 9.510836-22.19195 22.19195v209.23839c0 12.681115-9.510836 22.19195-22.191951 22.191951-12.681115 0-22.19195-9.510836-22.19195-22.191951v-209.23839c0-34.873065 28.532508-63.405573 63.405572-63.405573H833.783282c34.873065 0 63.405573 28.532508 63.405572 63.405573v209.23839c0 12.681115-6.340557 22.19195-19.021671 22.191951z m63.405572 317.027863c0 9.510836-3.170279 15.851393-6.340557 25.36223 0 0-98.278638 168.024768-98.278638 171.195046-9.510836 19.021672-19.021672 31.702786-60.235294 31.702786H272.643963c-34.873065 0-50.724458-15.851393-63.405573-34.873065l-95.108359-164.854489c-6.340557-9.510836-9.510836-19.021672-9.510836-31.702786v-145.832817c0-69.74613 53.894737-126.811146 120.470588-126.811146 41.213622 0 76.086687 19.021672 98.278638 53.894737 22.19195-34.873065 60.235294-53.894737 98.278638-53.894737 41.213622 0 76.086687 19.021672 98.278638 53.894737 22.19195-34.873065 60.235294-53.894737 98.278637-53.894737 41.213622 0 76.086687 19.021672 98.278638 53.894737 22.19195-34.873065 60.235294-53.894737 98.278638-53.894737 66.575851 0 120.470588 57.065015 120.470588 126.811146l6.340557 149.003095c0-3.170279 0-3.170279 0 0z m-697.4613 168.024768c6.340557 9.510836 12.681115 15.851393 25.362229 15.851393H770.377709c12.681115 0 19.021672 0 25.362229-15.851393 15.851393-25.362229 57.065015-95.108359 63.405573-107.789473H180.705882c6.340557 12.681115 50.724458 82.427245 63.405573 107.789473z m653.077399-317.027863c0-44.383901-34.873065-82.427245-79.256965-82.427245S738.674923 357.052632 738.674923 401.436533v22.19195c0 12.681115-9.510836 22.19195-22.191951 22.19195-12.681115 0-22.19195-9.510836-22.19195-22.19195v-22.19195c0-44.383901-34.873065-82.427245-79.256966-82.427245s-79.256966 38.043344-79.256966 82.427245v22.19195c0 12.681115-9.510836 22.19195-22.191951 22.19195-12.681115 0-22.19195-9.510836-22.19195-22.19195v-22.19195c0-44.383901-34.873065-82.427245-79.256966-82.427245s-79.256966 38.043344-79.256966 82.427245v22.19195c0 12.681115-9.510836 22.19195-22.19195 22.19195-12.681115 0-22.19195-9.510836-22.191951-22.19195v-22.19195c0-44.383901-34.873065-82.427245-79.256966-82.427245S129.981424 357.052632 129.981424 401.436533V547.26935c0 9.510836 9.510836 19.021672 19.021672 19.021672h713.312693c9.510836 0 19.021672-9.510836 19.021672-19.021672v-145.832817z"  horiz-adv-x="1024" />

    
    <glyph glyph-name="shezhi" unicode="&#58953;" d="M499.2 251.733333c-68.266667 0-123.733333 55.466667-123.733333 123.733334 0 68.266667 55.466667 123.733333 123.733333 123.733333 68.266667 0 123.733333-55.466667 123.733333-123.733333 0-68.266667-55.466667-123.733333-123.733333-123.733334z m0 200.533334c-42.666667 0-81.066667-34.133333-81.066667-81.066667s34.133333-81.066667 81.066667-81.066667 81.066667 34.133333 81.066667 81.066667-34.133333 81.066667-81.066667 81.066667zM503.466667-21.333333c-51.2 0-89.6 38.4-89.6 89.6 0 17.066667-8.533333 29.866667-21.333334 34.133333-12.8 4.266667-29.866667 4.266667-38.4-8.533333-17.066667-17.066667-38.4-29.866667-64-29.866667-21.333333 0-46.933333 8.533333-64 25.6-17.066667 17.066667-25.6 38.4-25.6 64s8.533333 46.933333 25.6 64l4.266667 4.266667c8.533333 8.533333 8.533333 17.066667 8.533333 25.6 0 8.533333-4.266667 17.066667-8.533333 25.6-8.533333 8.533333-17.066667 8.533333-25.6 8.533333h-4.266667c-51.2 0-89.6 38.4-89.6 89.6 0 51.2 38.4 89.6 89.6 89.6 17.066667 0 29.866667 8.533333 34.133334 21.333333 4.266667 12.8 4.266667 29.866667-8.533334 38.4-17.066667 17.066667-29.866667 38.4-29.866666 64s8.533333 46.933333 25.6 64c17.066667 17.066667 38.4 29.866667 64 29.866667s46.933333-8.533333 64-21.333333l4.266666-4.266667c12.8-12.8 25.6-12.8 38.4-8.533333h4.266667c12.8 4.266667 17.066667 17.066667 17.066667 29.866666v4.266667c0 51.2 38.4 89.6 89.6 89.6s89.6-38.4 89.6-89.6c0-21.333333 17.066667-38.4 34.133333-38.4 8.533333 0 17.066667 4.266667 25.6 8.533333 17.066667 17.066667 38.4 29.866667 64 29.866667s46.933333-4.266667 64-21.333333c17.066667-17.066667 29.866667-38.4 29.866667-59.733334s-4.266667-46.933333-21.333334-64l-8.533333-8.533333c-12.8-12.8-12.8-25.6-8.533333-38.4v-4.266667c4.266667-12.8 17.066667-17.066667 29.866666-17.066666h4.266667c51.2 0 89.6-38.4 89.6-89.6 0-51.2-38.4-89.6-89.6-89.6-17.066667 0-29.866667-8.533333-34.133333-21.333334-4.266667-12.8-4.266667-29.866667 8.533333-38.4 38.4-34.133333 42.666667-89.6 8.533333-128-34.133333-38.4-89.6-38.4-128-8.533333l-8.533333 8.533333c-17.066667 12.8-38.4 12.8-51.2 0-4.266667-8.533333-8.533333-17.066667-8.533333-25.6v-4.266666c0-51.2-38.4-89.6-89.6-89.6z m-128 170.666666c8.533333 0 21.333333-4.266667 29.866666-8.533333 29.866667-8.533333 46.933333-38.4 51.2-68.266667 0-29.866667 21.333333-51.2 46.933334-51.2s46.933333 21.333333 46.933333 46.933334v4.266666c0 21.333333 8.533333 38.4 21.333333 55.466667 29.866667 29.866667 81.066667 29.866667 110.933334 0l4.266666-4.266667 4.266667-4.266666c17.066667-17.066667 46.933333-17.066667 64 4.266666 17.066667 17.066667 17.066667 46.933333-4.266667 64-25.6 25.6-29.866667 59.733333-17.066666 89.6 12.8 29.866667 38.4 46.933333 72.533333 46.933334 29.866667 0 51.2 21.333333 51.2 46.933333s-21.333333 46.933333-46.933333 46.933333h-4.266667c-29.866667 0-59.733333 17.066667-72.533333 46.933334v8.533333c-8.533333 29.866667-4.266667 59.733333 17.066666 81.066667l4.266667 4.266666 4.266667 4.266667c8.533333 8.533333 12.8 21.333333 12.8 34.133333 0 12.8-8.533333 25.6-17.066667 29.866667-8.533333 8.533333-21.333333 12.8-34.133333 12.8-12.8 0-25.6-8.533333-29.866667-17.066667l-4.266667-4.266666c-12.8-12.8-34.133333-21.333333-55.466666-21.333334-42.666667 0-76.8 34.133333-76.8 76.8 0 29.866667-21.333333 51.2-46.933334 51.2s-46.933333-21.333333-46.933333-46.933333v-4.266667c0-29.866667-17.066667-59.733333-46.933333-72.533333h-8.533334c-29.866667-8.533333-59.733333-4.266667-81.066666 17.066667l-4.266667 4.266666c-8.533333 8.533333-21.333333 12.8-34.133333 12.8-12.8 0-25.6-4.266667-34.133334-17.066666-8.533333-8.533333-12.8-21.333333-12.8-34.133334s4.266667-25.6 17.066667-34.133333c25.6-25.6 29.866667-59.733333 17.066667-89.6-8.533333-29.866667-38.4-46.933333-68.266667-51.2-29.866667 0-51.2-21.333333-51.2-46.933333s21.333333-46.933333 46.933333-46.933334h4.266667c21.333333 0 38.4-8.533333 55.466667-21.333333 12.8-12.8 21.333333-34.133333 21.333333-55.466667s-8.533333-38.4-21.333333-55.466666l-4.266667-4.266667c-8.533333-8.533333-12.8-21.333333-12.8-34.133333 0-12.8 4.266667-25.6 12.8-34.133334 8.533333-8.533333 21.333333-12.8 34.133333-12.8 12.8 0 25.6 4.266667 34.133334 12.8 12.8 29.866667 34.133333 38.4 51.2 38.4z m375.466666 123.733334z"  horiz-adv-x="1024" />

    
    <glyph glyph-name="kefu" unicode="&#58954;" d="M89.7024 212.3776c-41.1648 0-74.8544 33.6896-74.8544 74.8544V437.0432c0 41.1648 33.6896 74.8544 74.8544 74.8544 41.1648 0 74.8544-33.6896 74.8544-74.8544v-149.8112c0.1024-41.1648-33.5872-74.8544-74.8544-74.8544zM926.6176 511.8976c-5.5296 0-10.8544-0.6144-16.0768-1.7408-3.1744 43.9296-13.5168 86.7328-30.8224 127.488-20.48 48.128-49.664 91.3408-86.8352 128.512S712.3968 832.512 664.3712 852.992C614.4 874.2912 561.4592 885.0432 507.0848 885.0432S399.872 874.2912 350.0032 853.0944c-48.128-20.48-91.3408-49.664-128.512-86.8352s-66.4576-80.4864-86.8352-128.512c-21.1968-49.8688-31.9488-102.7072-31.9488-157.0816V330.752h59.904V480.5632c0 189.952 154.5216 344.4736 344.4736 344.4736 189.952 0 344.4736-154.5216 344.4736-344.4736V330.752c0-176.9472-134.0416-323.072-305.8688-342.3232-12.9024 22.528-37.1712 37.7856-65.024 37.7856-41.3696 0-74.8544-33.4848-74.8544-74.8544 0-41.3696 33.4848-74.8544 74.8544-74.8544 33.4848 0 61.952 22.016 71.4752 52.4288 38.5024 4.3008 76.0832 14.1312 112.128 29.3888 48.128 20.48 91.3408 49.664 128.512 86.8352S859.136 125.5424 879.616 173.6704c6.3488 14.848 11.6736 30.0032 16.1792 45.3632 9.4208-4.3008 19.8656-6.656 30.8224-6.656 41.1648 0 74.8544 33.6896 74.8544 74.8544V437.0432c0 41.1648-33.6896 74.8544-74.8544 74.8544z"  horiz-adv-x="1024" />

    
    <glyph glyph-name="xinaixin1" unicode="&#58893;" d="M1167.90943 791.419551l-3.555999 3.555998C1031.804496 925.533486 820.466599 930.084483 682.370667 805.499544 544.275734 930.084483 332.936837 925.391486 200.387902 794.975549 65.136968 661.429615 63.571969 443.549721 197.116904 308.156787l3.269998-3.269998L604.149705-95.179016c42.381979-43.234979 111.784945-43.803979 155.019924-1.422999l1.422 1.422999 403.761802 399.779805c135.393934 133.401935 137.099933 351.424828 3.555999 486.817762z m-132.121936-284.296861c-9.955995 0-18.204991 8.105996-18.204991 18.203991 0 65.562968-53.189974 118.753942-118.752942 118.753942-4.835998 0-9.528995 1.989999-12.941994 5.403997-3.413998 3.412998-5.404997 8.106996-5.404997 12.941994a18.147991 18.147991 0 0 0 18.204991 18.203991c85.757958 0 155.303924-69.544966 155.303924-155.303924 0-9.954995-8.106996-18.203991-18.203991-18.203991z"  horiz-adv-x="1628" />

    
    <glyph glyph-name="daifukuan" unicode="&#59190;" d="M589.489 213.068c-34.232 0-61.99 27.818-61.99 62.162v62.164c0 34.344 27.758 62.16 61.99 62.16H961.61v-186.486H589.489z m46.551 137.266c-25.717 0-46.551-20.832-46.551-46.605 0-25.774 20.833-46.61 46.551-46.61 25.658 0 46.494 20.836 46.494 46.61 0 25.773-20.837 46.605-46.494 46.605z m-139.538-12.942v-62.163c0-51.487 41.668-93.269 92.987-93.269h310.13v-124.328c0-51.489-41.67-93.266-93.046-93.266h-651.14c-51.373 0-93.043 41.777-93.043 93.266V648.26c0 51.488 41.67 93.21 93.043 93.21h298.606l-72.835-30.425H139.935c-25.717 0-46.551-20.891-46.551-46.604 0-25.779 20.833-46.612 46.551-46.612h759.683v-187.162h-310.13c-51.318-0.001-92.986-41.782-92.986-93.275zM186.429 554.986h-61.993v-62.161h30.997v31.053h30.997v31.108h-0.001z m0-93.27h-61.993v-62.164h32.303l-1.306 31.114 30.997-0.627v31.677h-0.001z m0-93.215h-61.993v-62.162h31.622l-0.625 31.053h30.997v31.109h-0.001z m0-93.272h-61.993v-62.162h31.622l-0.625 31.11 30.997-0.68v31.732h-0.001z m0-93.268h-61.993v-62.165h30.997v31.11h30.997v31.055h-0.001z m0-93.216h-61.993v-62.163h31.622l-0.625 30.43h30.997v31.733h-0.001z m124.042 561.443L674.813 803.634l69.77-153.446H310.47z m423.097 91.283h73.005c27.136 0 51.375-11.863 68.349-30.426H748.386l-14.818 30.426z"  horiz-adv-x="1024" />

    
    <glyph glyph-name="daishouhuo" unicode="&#58999;" d="M19.456 642.048v-485.376s7.168-52.736 24.064-69.632c16.384-16.384 47.616-33.792 47.616-33.792l341.504-93.184s30.208-9.216 38.4-5.12c8.192 3.584 5.632 15.36 5.632 15.36V517.632L19.456 642.048z m983.552 0l-144.896-39.424v-210.944l-95.744-25.6V576.512L544.768 517.12v-501.76s-1.536-50.176 5.12-59.392c6.656-9.216 38.4 3.584 38.4 3.584l306.688 83.968s64.512 16.896 88.576 40.96c23.552 23.552 20.48 123.904 20.48 123.904l-1.024 433.664z m-1.536 50.688L537.6 821.248s-19.968 4.608-27.136 4.608-27.648-5.12-27.648-5.12l-143.36-39.424L834.56 647.68l166.912 45.056z m-982.016 0l491.008-132.608 193.024 52.224-493.056 133.12L19.456 692.736z"  horiz-adv-x="1024" />

    
    <glyph glyph-name="sousuo" unicode="&#58920;" d="M426.666667 42.666667C191.146667 42.666667 0 233.557333 0 469.333333S191.146667 896 426.666667 896s426.666667-190.890667 426.666666-426.666667-191.146667-426.666667-426.666666-426.666666z m-4.053334 89.386666a341.333333 341.333333 0 1 1 0 682.666667 341.333333 341.333333 0 0 1 0-682.666667zM695.168 140.501333a42.666667 42.666667 0 0 0 60.330667 60.330667l256-256a42.666667 42.666667 0 0 0-60.330667-60.330667l-256 256z"  horiz-adv-x="1024" />

    
    <glyph glyph-name="fenxiang" unicode="&#58886;" d="M353.989 477.5L665.81 644.482l23.983-44.786-311.822-166.981zM352.779 318.16999999999996l20.254 46.588L691.817 226.16999999999996l-20.254-46.589zM772.4 528.2c-78.3 0-142.1 63.7-142.1 142S694.1 812.4 772.4 812.4s142.1-63.7 142.1-142.1-63.7-142.1-142.1-142.1z m0 233.4c-50.3 0-91.3-40.9-91.3-91.3 0-50.3 40.9-91.2 91.3-91.2 50.3 0 91.3 40.9 91.3 91.2 0 50.3-40.9 91.3-91.3 91.3zM784.9 26.5c-78.3 0-142.1 63.7-142.1 142.1s63.7 142.1 142.1 142.1S927 246.89999999999998 927 168.60000000000002s-63.7-142.1-142.1-142.1z m0 233.3c-50.3 0-91.3-40.9-91.3-91.3s40.9-91.3 91.3-91.3c50.3 0 91.3 40.9 91.3 91.3s-40.9 91.3-91.3 91.3zM269.1 237.39999999999998c-78.3 0-142.1 63.7-142.1 142s63.7 142.1 142.1 142.1 142.1-63.7 142.1-142.1-63.8-142-142.1-142z m0 233.3c-50.3 0-91.3-40.9-91.3-91.3 0-50.3 41-91.2 91.3-91.2s91.3 40.9 91.3 91.2c-0.1 50.4-41 91.3-91.3 91.3z"  horiz-adv-x="1024" />

    


  </font>
</defs>
</svg>
