<?xml version="1.0" standalone="no"?><!DOCTYPE svg PUBLIC "-//W3C//DTD SVG 1.1//EN" "http://www.w3.org/Graphics/SVG/1.1/DTD/svg11.dtd"><svg t="1553756008451" class="icon" style="" viewBox="0 0 1025 1024" version="1.1" xmlns="http://www.w3.org/2000/svg" p-id="8409" xmlns:xlink="http://www.w3.org/1999/xlink" width="128.125" height="128"><defs><style type="text/css"></style></defs><path d="M1019.346347 527.082667a21.333333 21.333333 0 0 1-30.037334 0L513.597013 51.370667l-475.733333 475.733333A21.333333 21.333333 0 1 1 7.84768 497.066667L498.27968 6.613333c0-0.106667 0.128-0.256 0.234667-0.362666a21.333333 21.333333 0 0 1 30.144 0c0.106667 0 0.128 0.256 0.234666 0.362666l490.453334 490.453334a21.333333 21.333333 0 0 1 0 30.016zM129.597013 533.333333a21.333333 21.333333 0 0 1 42.666667 0v448h682.666667V533.333333a21.333333 21.333333 0 0 1 42.666666 0v469.333334a21.333333 21.333333 0 0 1-21.333333 21.333333H150.930347a21.333333 21.333333 0 0 1-21.333334-21.333333V533.333333z" p-id="8410"></path></svg>