<?xml version="1.0" standalone="no"?><!DOCTYPE svg PUBLIC "-//W3C//DTD SVG 1.1//EN" "http://www.w3.org/Graphics/SVG/1.1/DTD/svg11.dtd"><svg t="1554712026033" class="icon" style="" viewBox="0 0 1024 1024" version="1.1" xmlns="http://www.w3.org/2000/svg" p-id="1395" xmlns:xlink="http://www.w3.org/1999/xlink" width="128" height="128"><defs><style type="text/css"></style></defs><path d="M288 160h640v96H288zM288 464h640v96H288zM288 768h640v96H288z" p-id="1396" fill="#ffffff"></path><path d="M160 208m-64 0a64 64 0 1 0 128 0 64 64 0 1 0-128 0Z" p-id="1397" fill="#ffffff"></path><path d="M160 512m-64 0a64 64 0 1 0 128 0 64 64 0 1 0-128 0Z" p-id="1398" fill="#ffffff"></path><path d="M160 816m-64 0a64 64 0 1 0 128 0 64 64 0 1 0-128 0Z" p-id="1399" fill="#ffffff"></path></svg>