<?xml version="1.0" standalone="no"?><!DOCTYPE svg PUBLIC "-//W3C//DTD SVG 1.1//EN" "http://www.w3.org/Graphics/SVG/1.1/DTD/svg11.dtd"><svg t="1554712195146" class="icon" style="" viewBox="0 0 1024 1024" version="1.1" xmlns="http://www.w3.org/2000/svg" p-id="6533" xmlns:xlink="http://www.w3.org/1999/xlink" width="128" height="128"><defs><style type="text/css"></style></defs><path d="M576.4 896H159.9c-17.7 0-32-14.3-32-32V160c0-17.7 14.3-32 32-32h383.6v160c0 35.3 28.6 64 63.9 64h159.8v160c0 17.7 14.3 32 32 32s32-14.3 32-32V270.2c0-8.5-3.3-16.6-9.3-22.6L648.7 73.4c-6-6-14.2-9.4-22.7-9.4H127.9C92.6 64 64 92.7 64 128v768c0 35.3 28.6 64 63.9 64h448.5c17.7 0 32-14.3 32-32s-14.3-32-32-32z m63-608c-17.7 0-32-14.3-32-32V128l159.8 160H639.4z" p-id="6534" fill="#ffffff"></path><path d="M543.5 672H222.8c-17.7 0-32 14.3-32 32s14.3 32 32 32h320.6c17.7 0 32-14.3 32-32s-14.3-32-31.9-32zM606.4 480H222.8c-17.7 0-32 14.3-32 32s14.3 32 32 32h383.6c17.7 0 32-14.3 32-32s-14.3-32-32-32zM222.8 352h191.8c17.7 0 32-14.3 32-32s-14.3-32-32-32H222.8c-17.7 0-32 14.3-32 32 0.1 17.7 14.4 32 32 32zM896 687.9v95c0 8.8-7.2 16-16 16H720.2c-8.8 0-16-7.2-16-16v-95c0-8.8 7.2-16 16-16h159.9c8.8 0 15.9 7.2 15.9 16z m-255.8-48v191c0 17.7 14.3 32 32 32h191.9l95.9 64-33-64h1c17.7 0 32-14.3 32-32v-191c0-17.7-14.3-32-32-32H672.2c-17.6 0-32 14.3-32 32z" p-id="6535" fill="#ffffff"></path><path d="M860.9 767.9H739.4c-1.8 0-3.2-1.4-3.2-3.2v-57.6c0-1.8 1.4-3.2 3.2-3.2h121.5c1.8 0 3.2 1.4 3.2 3.2v57.6c0 1.8-1.5 3.2-3.2 3.2z" p-id="6536" fill="#ffffff"></path></svg>